<svg width="22" height="24" viewBox="0 0 22 24" fill="none" xmlns="http://www.w3.org/2000/svg">
<path opacity="0.4" d="M15.2242 21.9897H7.19603C5.95125 22.0796 4.72884 21.5781 3.80901 20.6011C2.96828 19.5312 2.53674 18.1107 2.61411 16.6652V7.33482C2.53674 5.88932 2.96742 4.46878 3.80815 3.39889C4.72884 2.42189 5.95125 1.92041 7.19603 2.01032H15.2242C16.4674 1.92041 17.6889 2.4209 18.6087 3.39789C19.4486 4.46878 19.881 5.88832 19.8071 7.33482V16.6652C19.8836 18.1107 19.4529 19.5312 18.6121 20.6011C17.6915 21.5781 16.4691 22.0796 15.2242 21.9897Z" fill="#424F65"/>
<path d="M15.56 10.3976L9.92119 16.9829C9.62793 17.3146 9.2425 17.5 8.84032 17.5H6.87133C6.76242 17.5 6.66187 17.4512 6.58646 17.3634C6.51106 17.2756 6.47754 17.1585 6.47754 17.0317L6.52781 14.7195C6.53619 14.261 6.69538 13.8317 6.97188 13.5098L10.9685 8.8561C11.0355 8.77805 11.1529 8.77805 11.2199 8.8561L12.6216 10.4785C12.7138 10.5849 12.8478 10.6541 12.9903 10.6541C13.3003 10.6541 13.5432 10.3615 13.5432 10.0102C13.5432 9.83463 13.4846 9.67854 13.3925 9.56146C13.3673 9.52244 12.0326 7.97805 12.0326 7.97805C11.9488 7.88049 11.9488 7.71463 12.0326 7.61707L12.594 6.95366C13.1134 6.34878 13.9513 6.34878 14.4708 6.95366L15.56 8.22195C16.0711 8.81707 16.0711 9.79268 15.56 10.3976Z" fill="#424F65"/>
</svg>
